<svg fill="none" viewBox="0 0 141 92" xmlns="http://www.w3.org/2000/svg"><title>Dzgn.IO Logo</title><path clip-rule="evenodd" d="m136.454 62.5095c2.372-5.4231 3.546-11.2541 3.546-17.469 0-6.215-1.174-12.046-3.546-17.4931s-5.559-10.1983-9.608-14.3016c-4.05-4.07933-8.794-7.31879-14.209-9.6704-5.439-2.3756-11.261-3.5754-17.4671-3.5754-6.2058 0-12.0282 1.1998-17.4432 3.5754-5.4391 2.35161-10.1833 5.59107-14.2086 9.6704-1.0518 1.0797-2.058 2.2074-2.9948 3.359-1.9884-2.5191-4.171-4.6543-6.5667-6.3578-2.8249-1.99166-5.5827-3.62339-8.2639-4.84718-3.0214-1.29579-6.1339-2.32761-9.3207-3.07149-3.1891-.71988-6.3759-1.24779-9.5626-1.583735-3.1867-.335943-6.2513-.503915-9.2464-.551907-2.9711-.047992-5.7744-.071988-8.38613-.071988h-9.17687v90.1769h9.17687c2.44153 0 5.65233-.048 9.60813-.168 3.9775-.1439 8.1706-.6239 12.6248-1.4877 4.4591-.8639 8.9157-2.1837 13.4203-3.9834 4.4806-1.7997 8.5539-4.3672 12.1959-7.7267 1.1979-1.1277 2.3479-2.3273 3.3542-3.6469.9821 1.2233 2.036 2.3988 3.1379 3.5262 4.0253 4.0794 8.7695 7.3188 14.2086 9.6944 5.415 2.3756 11.2374 3.5514 17.4432 3.5514 6.2061 0 12.0281-1.1758 17.4671-3.5514 5.415-2.3756 10.159-5.615 14.209-9.6944 4.049-4.1033 7.236-8.8545 9.608-14.3016zm-76.0744 10.7739c-2.6137-3.2392-4.7675-6.8143-6.4924-10.7731-2.3721-5.4231-3.5462-11.2542-3.5462-17.4691 0-6.215 1.1741-12.046 3.5462-17.4931 1.749-4.0072 3.9509-7.6544 6.6367-10.9418.3567.4316.6943.8872 1.0294 1.3667 2.2523 3.1675 4.0997 6.9588 5.5589 11.4221 1.4855 4.4632 2.2043 9.7424 2.2043 15.8853 0 7.5108-1.1261 13.8457-3.4263 18.9569-1.5119 3.4072-3.3543 6.4306-5.5106 9.0461z" fill="#313131" fill-rule="evenodd"/></svg>